<?xml version="1.0" encoding="utf-8"?>
<!-- Generator: Adobe Illustrator 24.0.1, SVG Export Plug-In . SVG Version: 6.00 Build 0)  -->
<svg version="1.1" id="Ebene_1" xmlns="http://www.w3.org/2000/svg" xmlns:xlink="http://www.w3.org/1999/xlink" x="0px" y="0px"
	 viewBox="0 0 90 137.2" xml:space="preserve">
<style type="text/css">
	.st0{fill:#14B3B3;}
</style>
<title>byteleaf_logo_color_white</title>
<path class="st0" d="M27,51.5C13.2,61.7,10.3,81.2,20.5,95c1.3,1.8,2.9,3.5,4.6,5l0.3,0.2l2.6-5L27.7,95c-5.1-4.8-8-11.5-7.9-18.6
	c0-8.1,3.9-15.8,10.4-20.6l22.5-16.7l-0.1,5L33.4,58.5c-5.1,3.8-8.3,9.6-8.6,16c-0.3,5.6,1.6,11.1,5.4,15.3l0.3,0.3l2.7-5.3
	l-0.1-0.1c-5-7-3.4-16.7,3.5-21.8L52.5,51l-0.1,4.8L40,65.7c-2.8,2.1-4.5,5.5-4.4,9c0,3.3,1.6,6.3,4.1,8.3l-16.5,32.3l4.8,2.5
	l16.6-32.6c2.6,0.5,5.3-0.1,7.5-1.4c3.2-1.9,5.2-5.4,5.3-9.2l0.8-39.5l3.7-2.8l-0.3,43.4c-0.1,8.3-6.6,15-14.9,15.5h-0.2l-2.8,5.3
	h0.4C56,97.5,66.2,88.7,67.1,77c0-0.4,0-0.8,0.1-1.2l0.3-47.5l4.5-3.3l-0.9,52c-0.1,8-4,15.5-10.4,20.2c-5.5,4.1-12.4,5.8-19.2,4.7
	h-0.2l-2.6,5l0.3,0.1c16.8,3.5,33.3-7.2,36.8-24c0.4-1.9,0.6-3.9,0.7-5.9l1.1-63L27,51.5z M49.4,79.1c-1.6,1-3.5,1.1-5.2,0.2
	l-0.1-0.1c-0.2-0.1-0.4-0.2-0.6-0.4c-1.5-1-2.4-2.6-2.4-4.4c0-1.8,0.8-3.5,2.3-4.6l9-7.2L52,74.5l0,0C52,76.4,51,78.1,49.4,79.1z"/>
</svg>
