<svg id="Ebene_1" data-name="Ebene 1" xmlns="http://www.w3.org/2000/svg" viewBox="0 0 512 137.19"><defs><style>.cls-1{fill:#fff;}.cls-2{fill:#fff;}</style></defs><title>byteleaf_logo_color_white</title><path class="cls-1" d="M27,51.5a31.08,31.08,0,0,0-1.95,48.44l.26.22,2.56-5L27.74,95a25.11,25.11,0,0,1-7.91-18.56A25.53,25.53,0,0,1,30.25,55.87L52.78,39.19l-.1,5L33.41,58.46a21.16,21.16,0,0,0-8.58,16,20.88,20.88,0,0,0,5.44,15.29l.26.29,2.69-5.26-.09-.13a15.8,15.8,0,0,1,3.51-21.81L52.53,51l-.1,4.75L40,65.65a11,11,0,0,0-4.4,9A10.76,10.76,0,0,0,39.73,83L23.26,115.33l4.84,2.47L44.7,85.2a10.8,10.8,0,0,0,7.51-1.44,10.91,10.91,0,0,0,5.26-9.15L58.3,35.1,62,32.35l-.3,43.41a15.81,15.81,0,0,1-14.9,15.5h-.15l-2.75,5.35.41,0a21.26,21.26,0,0,0,22.83-20.8l.32-47.54L72,24.94l-.94,52A25.5,25.5,0,0,1,60.66,97.14a25.17,25.17,0,0,1-19.21,4.73l-.2,0-2.57,5,.34.07A31.11,31.11,0,0,0,76.53,77l1.14-63ZM49.38,79.12a5.32,5.32,0,0,1-5.21.25l-.1-.05a6.67,6.67,0,0,1-.64-.37A5.38,5.38,0,0,1,41,74.56,5.46,5.46,0,0,1,43.29,70l9-7.15L52,74.5h0A5.48,5.48,0,0,1,49.38,79.12Z"/><path class="cls-2" d="M121.64,100.46a32.71,32.71,0,0,1-18.21-5.52V23.11l-7.83-.44a9.89,9.89,0,0,1-.22-2,12.18,12.18,0,0,1,.22-2.09,88.63,88.63,0,0,1,14-1.33l-.33,6.07V46.61h.44c5.63-4.52,10.37-6,16.44-6,11.7,0,20.63,6.4,20.63,28.58C146.79,91.19,137.08,100.46,121.64,100.46Zm3.75-54.29c-5.41,0-10.81,1.88-16.11,5.74V91.85c3.09,2.1,7.94,3.2,12.36,3.2,11.8,0,18.86-5.85,18.86-25.82C140.5,51,134.77,46.17,125.39,46.17Z"/><path class="cls-2" d="M209.46,46.28l-5.84.77s-11.15,33.22-18.87,53c-6.84,17.54-12.58,23.17-21.3,23.17a18.82,18.82,0,0,1-9.15-2.1,22,22,0,0,1,1.54-5.41,15.44,15.44,0,0,0,7.61,1.77c4.75,0,8.5-2.43,12.69-11.92l2.65-6.18c-7.06-17.76-12.91-34.2-18.76-52.3l-6.29-.44a9.87,9.87,0,0,1-.22-2,11.1,11.1,0,0,1,.22-2.1,55.18,55.18,0,0,1,10.6-1.32L180,87.11a43.19,43.19,0,0,1,1.77,6.29h.44a42.64,42.64,0,0,1,1.66-6.29l13.79-40.06-7.61-.77a12.71,12.71,0,0,1-.23-2.32,11.44,11.44,0,0,1,.23-2.2h19.41a12.29,12.29,0,0,1,.23,2.2A13.67,13.67,0,0,1,209.46,46.28Z"/><path class="cls-2" d="M238.37,100.46c-10.59,0-14.12-5.52-14.12-17V46.72h-7.17v-5h7.17V29a20.36,20.36,0,0,1,5.85-1.1v13.9h14.23a36.15,36.15,0,0,1-.44,5H230.1V84c0,8.16,2,10.81,8.05,10.81a22.86,22.86,0,0,0,8.5-1.77,18.23,18.23,0,0,1,1,5.52A22.39,22.39,0,0,1,238.37,100.46Z"/><path class="cls-2" d="M297.29,70.45H261.54V71c0,15.89,4.53,23.94,18.87,23.94a27.59,27.59,0,0,0,14-3.75,23.36,23.36,0,0,1,1.88,5.29c-3.86,2.54-10.37,4-16.22,4-16.33,0-24.72-9.27-24.72-29.13,0-21.85,9.49-30.68,22.29-30.68,12.25,0,19.86,7.29,19.86,21.63C297.51,64.71,297.4,67.8,297.29,70.45ZM277.43,45.84c-9.27,0-15.23,5.74-15.78,19.75h30c.11-1,.11-2.76.11-3.64C291.77,50.14,286.15,45.84,277.43,45.84Z"/><path class="cls-2" d="M334,99.35H310.09c-.11-1.1-.22-2.75-.22-3.86s.11-2.54.22-3.64l7.17-1.1V26.53l-7.39-.66a31.87,31.87,0,0,1-.22-3.53,33.55,33.55,0,0,1,.22-3.53,93.26,93.26,0,0,1,17.43-1.55l-.44,9.38V90.75l7.17,1.1c.11,1.1.22,2.54.22,3.64S334.14,98.25,334,99.35Z"/><path class="cls-2" d="M388.76,73h-34v.44c0,12,3.87,17.77,16.11,17.77,5.3,0,11.37-1.66,14.79-3.75a50.62,50.62,0,0,1,2.43,9.27c-4.42,2.42-11.92,3.75-17.44,3.75-17.21,0-26.26-9.6-26.26-29.13,0-21.3,10-30.68,23.5-30.68,14,0,21.19,8.61,21.19,23.4C389.09,66.47,389,70.34,388.76,73Zm-33.88-7.72h24.5c.11-.88.11-2.54.11-3.31,0-9.49-4.41-13.35-11.81-13.35C360.07,48.6,355.22,53.45,354.88,65.26Z"/><path class="cls-2" d="M451.21,94.17c0,4.63-2.87,6.29-7.28,6.29-4.75,0-8.5-1.22-10.38-6h-.44a24.22,24.22,0,0,1-16.11,6c-9.93,0-16.77-5-16.77-15.78,0-12.14,7.06-16.88,20.75-17.43l11.47-.45V52c-2.76-1.55-7.61-2.54-12-2.54-4.74,0-10.26,1-13.46,2.43a44.76,44.76,0,0,1-1.32-9,52.49,52.49,0,0,1,15.23-2.21c7.61,0,16.1,1.77,21.07,5.63V87.55c0,2.76.66,3.64,3.2,3.64h6.07ZM432.45,74l-11.7.55c-7.72.33-10.26,2.76-10.26,9.49,0,6,2.54,8.27,8.61,8.27A24.6,24.6,0,0,0,432.45,88Z"/><path class="cls-2" d="M488.28,26.64a37.88,37.88,0,0,0-5.3-.33c-5,0-7.28,2.54-7.28,8.17v7.28h13.13a55.44,55.44,0,0,1-.77,8.6H475.7V90.75l7.51,1.1c.11,1.1.22,2.65.22,3.75s-.11,2.65-.23,3.75H458.93c-.11-1.1-.22-2.64-.22-3.75s.11-2.65.22-3.75l7.17-1.1V50.36h-7.17v-8.6h7.17V35.25c0-11.59,8.17-18,17.22-18a43.19,43.19,0,0,1,5.62.44A48.94,48.94,0,0,1,488.28,26.64Z"/></svg>